<?xml version="1.0" encoding="iso-8859-1"?>
<!-- Uploaded to: SVG Repo, www.svgrepo.com, Generator: SVG Repo Mixer Tools -->
<svg fill="white" height="800px" width="800px" version="1.1" id="Layer_1" xmlns="http://www.w3.org/2000/svg" xmlns:xlink="http://www.w3.org/1999/xlink"
	 viewBox="0 0 512 512" xml:space="preserve">
<g>
	<g>
		<path d="M270.091,243.509H39.716C17.817,243.511,0,261.326,0,283.225v18.73h309.807v-18.73
			C309.807,261.326,291.99,243.509,270.091,243.509z"/>
	</g>
</g>
<g>
	<g>
		<path d="M0,335.347v72.686c0,21.899,17.817,39.716,39.716,39.716h230.377c21.899,0,39.716-17.816,39.716-39.716v-72.686H0z
			 M94.698,391.808H46.923v-33.391h47.775V391.808z"/>
	</g>
</g>
<g>
	<g>
		<path d="M94.698,64.253v63.984h16.696c26.075,0,47.29-21.215,47.29-47.289V64.253H94.698z"/>
	</g>
</g>
<g>
	<g>
		<path d="M448.014,64.252v16.696c0,26.075,21.215,47.289,47.29,47.289H512V64.252H448.014z"/>
	</g>
</g>
<g>
	<g>
		<path d="M495.304,233.291c-26.075,0-47.29,21.215-47.29,47.29v16.695H512v-63.984H495.304z"/>
	</g>
</g>
<g>
	<g>
		<path d="M495.304,161.628c-44.487,0-80.681-36.194-80.681-80.68V64.253H192.075v16.696c0,44.487-36.194,80.68-80.681,80.68H94.698
			v48.491H225.57c-5.674-8.856-8.874-18.817-8.874-29.355c0-36.765,38.796-66.57,86.653-66.57c47.856,0,86.653,29.804,86.653,66.57
			c0,29.177-24.446,53.954-58.453,62.945c7.358,11.404,11.649,24.964,11.649,39.516v14.051h71.425v-16.695
			c0-44.488,36.194-80.681,80.681-80.681H512v-38.272H495.304z"/>
	</g>
</g>
</svg>