<?xml version="1.0" encoding="iso-8859-1"?>
<!-- Uploaded to: SVG Repo, www.svgrepo.com, Generator: SVG Repo Mixer Tools -->
<!DOCTYPE svg PUBLIC "-//W3C//DTD SVG 1.1//EN" "http://www.w3.org/Graphics/SVG/1.1/DTD/svg11.dtd">
<svg fill="#000000" version="1.1" id="Capa_1" xmlns="http://www.w3.org/2000/svg" xmlns:xlink="http://www.w3.org/1999/xlink" 
	 width="800px" height="800px" viewBox="0 0 31.408 31.408"
	 xml:space="preserve">
<g>
	<g>
		<path d="M20.669,9.73c0.199,0,0.37,0.034,0.507,0.098c0.164,0.076,0.364,0.116,0.594,0.116c0.379,0,0.711-0.107,0.727-0.111
			l0.068-0.022v-1.73l-0.133,0.041c-0.002,0-0.375,0.114-0.726,0.114c-0.192,0-0.336-0.034-0.429-0.1
			c-0.127-0.093-0.312-0.139-0.549-0.139c-0.379,0-0.771,0.118-0.785,0.124l-0.071,0.021v1.732l0.134-0.044
			C20.01,9.831,20.32,9.73,20.669,9.73z M20.077,8.296c0.125-0.032,0.396-0.094,0.653-0.094c0.19,0,0.336,0.034,0.43,0.101
			c0.126,0.092,0.312,0.138,0.547,0.138c0.25,0,0.504-0.052,0.652-0.088v1.305c-0.11,0.03-0.342,0.081-0.592,0.081
			c-0.199,0-0.369-0.033-0.506-0.097c-0.164-0.077-0.363-0.117-0.593-0.117c-0.239,0-0.458,0.042-0.592,0.076V8.296L20.077,8.296z"
			/>
		<path d="M19.648,8.102c0.052-0.042,0.084-0.107,0.084-0.181c0-0.128-0.104-0.232-0.232-0.232c-0.129,0-0.232,0.104-0.232,0.232
			c0,0.073,0.032,0.138,0.084,0.181v2.226l-3.896-2.456l-5.44,3.62L9.98,12.807h0.735V23.72h9.878V12.807h0.567l0.033-1.316
			l-1.547-0.976V8.102H19.648z M12.951,20.521h-1.327v-1.326h1.327V20.521z M12.951,18.52h-1.327v-1.326h1.327V18.52z
			 M12.951,16.466h-1.327v-1.327h1.327V16.466z M12.951,14.337h-1.327v-1.325h1.327V14.337z M15.204,20.521h-1.327v-1.326h1.327
			V20.521z M15.204,18.52h-1.327v-1.326h1.327V18.52z M15.204,16.466h-1.327v-1.327h1.327V16.466z M15.204,14.337h-1.327v-1.325
			h1.327V14.337z M17.432,20.521h-1.326v-1.326h1.326V20.521z M17.432,18.52h-1.326v-1.326h1.326V18.52z M17.432,16.466h-1.326
			v-1.327h1.326V16.466z M17.432,14.337h-1.326v-1.325h1.326V14.337z M19.686,20.521h-1.326v-1.326h1.326V20.521z M19.686,18.52
			h-1.326v-1.326h1.326V18.52z M19.686,16.466h-1.326v-1.327h1.326V16.466z M19.686,14.337h-1.326v-1.325h1.326V14.337z"/>
		<path d="M21.527,13.674V23.72h9.881V13.674H21.527z M24.145,21.854H22.95v-1.193h1.192v1.193H24.145z M24.145,20.054H22.95v-1.194
			h1.192v1.194H24.145z M24.145,18.347H22.95v-1.194h1.192v1.194H24.145z M24.145,16.542H22.95v-1.194h1.192v1.194H24.145z
			 M26.173,21.854h-1.194v-1.193h1.194V21.854z M26.173,20.054h-1.194v-1.194h1.194V20.054z M26.173,18.347h-1.194v-1.194h1.194
			V18.347z M26.173,16.542h-1.194v-1.194h1.194V16.542z M28.182,21.854h-1.195v-1.193h1.195V21.854z M28.182,20.054h-1.195v-1.194
			h1.195V20.054z M28.182,18.347h-1.195v-1.194h1.195V18.347z M28.182,16.542h-1.195v-1.194h1.195V16.542z M30.209,21.854h-1.193
			v-1.193h1.193V21.854z M30.209,20.054h-1.193v-1.194h1.193V20.054z M30.209,18.347h-1.193v-1.194h1.193V18.347z M30.209,16.542
			h-1.193v-1.194h1.193V16.542z"/>
		<path d="M0,23.72h9.878V13.674H0V23.72z M7.465,15.348H8.66v1.194H7.465V15.348z M7.465,17.151H8.66v1.195H7.465V17.151z
			 M7.465,18.856H8.66v1.193H7.465V18.856z M7.465,20.661H8.66v1.193H7.465V20.661z M5.436,15.348H6.63v1.194H5.436V15.348z
			 M5.436,17.151H6.63v1.195H5.436V17.151z M5.436,18.856H6.63v1.193H5.436V18.856z M5.436,20.661H6.63v1.193H5.436V20.661z
			 M3.428,15.348h1.195v1.194H3.428V15.348z M3.428,17.151h1.195v1.195H3.428V17.151z M3.428,18.856h1.195v1.193H3.428V18.856z
			 M3.428,20.661h1.195v1.193H3.428V20.661z M1.399,15.348h1.195v1.194H1.399V15.348z M1.399,17.151h1.195v1.195H1.399V17.151z
			 M1.399,18.856h1.195v1.193H1.399V18.856z M1.399,20.661h1.195v1.193H1.399V20.661z"/>
	</g>
</g>
</svg>